# xmcd
#
# Track frame offsets: 
#        150
#        16484
#        32296
#        48174
#        62808
#        76838
#        91362
#        105197
#        123360
#        139611
#        152244
#        165786
#        180788
#        190973
#        205141
#        222028
#        237851
#        254206
#        275585
#        287082
#
# Disc length: 3955 seconds
#
# Revision: 0
# Processed by: cddbd v1.5.2PL0 Copyright (c) Steve Scherf et al.
# Submitted via: ExactAudioCopy v0.99pb4
#
DISCID=040f7114
DTITLE=Various Artist - 100 Hollandse Hits - CD 5
DYEAR=2010
DGENRE=National Folk
TTITLE0=Leef Als een Zigeuner - Frank van Etten
TTITLE1=Mijn Naam Dat Is Marina - Django Wagner
TTITLE2=Bella Bella Signorita - Willem Barth
TTITLE3=Brabantse Nachten Zijn Lang - Arie Ribbens
TTITLE4=Huil Maar Niet Kleine Eva - Radi Ensemble
TTITLE5=Lekker Dansen - Anita and Ed
TTITLE6=1000 Keer Aan Jou Gedacht  - Corry Konings
TTITLE7=Drink Rode Wijn - Joe Harris
TTITLE8=Wat Is Dit Een Mooie Dag  - Roel C. Verburg
TTITLE9=Het Gevoel Van Ware Liefde - Holland Duo
TTITLE10=Guitar Tango - The Locomotions
TTITLE11=Zomer Op Het Plein - Roy Raymonds
TTITLE12=Ave Maria No Morro - Dixie Aces
TTITLE13=Wij Zijn De Slijpers Van Parijs - De Slijpers
TTITLE14=Laat Me Weten - Maarten
TTITLE15=Hyves is Hyves - Vanellende.nl
TTITLE16=De Feestbalade - Jan Joost
TTITLE17=Kon Ik Maar Even Bij Je Zijn - Feestteam
TTITLE18=De Vogeltjesdans  - Electronica's
TTITLE19=Over 25 Jaar - Johnny Hoes
EXTD=
EXTT0=
EXTT1=
EXTT2=
EXTT3=
EXTT4=
EXTT5=
EXTT6=
EXTT7=
EXTT8=
EXTT9=
EXTT10=
EXTT11=
EXTT12=
EXTT13=
EXTT14=
EXTT15=
EXTT16=
EXTT17=
EXTT18=
EXTT19=
PLAYORDER=
